<?xml version="1.0" encoding="utf-8"?>
<!-- Generator: Adobe Illustrator 26.0.0, SVG Export Plug-In . SVG Version: 6.00 Build 0)  -->
<svg version="1.1" id="Layer_1" xmlns="http://www.w3.org/2000/svg" xmlns:xlink="http://www.w3.org/1999/xlink" x="0px" y="0px"
	 viewBox="0 0 20 14" style="enable-background:new 0 0 20 14;" xml:space="preserve">
<path style="fill:#17191C;" d="M6.9491649,14.0019302c-2.7758789,0-5.2919922-1.6416016-6.409668-4.1816406
	c-1.5556641-3.5317378,0.0527344-7.6708984,3.5849609-9.2265625c0.8969727-0.3950195,1.8452148-0.5952148,2.8178711-0.5952148
	c2.6274409,0,5.0224605,1.4702148,6.2187495,3.78125l5.0058603-1.3413086
	c0.1279297-0.0341797,0.2587891-0.0512695,0.3896484-0.0512695c0.6777344,0,1.2724609,0.4575195,1.4482422,1.112793
	c0.2128906,0.7988284-0.2626953,1.6225588-1.0605469,1.8369143L13.9393988,6.677712
	c0.1357422,2.8857417-1.4990234,5.5517573-4.1728516,6.7294917C8.8695745,13.8017349,7.9218211,14.0019302,6.9491649,14.0019302z
	 M6.9496531,1.9975359c-1.7836914,0-3.4443359,0.9580078-4.3349609,2.5009768
	c-1.3784181,2.387207-0.5576172,5.4506831,1.8295898,6.8305659c0.7602539,0.4384766,1.6225586,0.6699219,2.4946289,0.6699219
	c1.7836909,0,3.445312-0.9580078,4.3364253-2.5009766c0.6669922-1.15625,0.8447266-2.5039058,0.4990234-3.7934566
	c-0.3457031-1.2905273-1.1728516-2.3686526-2.3295898-3.0361331C8.684516,2.2294695,7.8217235,1.9975359,6.9496531,1.9975359z"/>
<path style="fill:#BABECC;" d="M12.8945322,4.380599c-1.4466543-3.2854557-5.2827888-4.7760973-8.568244-3.3294425
	s-4.7760978,5.2827883-3.329443,8.568244s5.2827892,4.7760973,8.5682449,3.329443
	c2.5967636-1.1434107,4.1518154-3.8390579,3.8416433-6.6594067l-0.0004997,0.0008664
	c0.0496407-0.0059805,0.0985498-0.0146937,0.148592-0.02737l5.2591982-1.4091926
	c0.5336246-0.1427813,0.8504658-0.6911173,0.7076836-1.2247419c-0.1427803-0.5336244-0.6911163-0.8504665-1.224741-0.7076845
	l-5.2591991,1.4091921c-0.0492172,0.0128675-0.0973892,0.0294456-0.1441021,0.0495925L12.8945322,4.380599z M9.6945333,2.2351611
	c2.6306076,1.5187857,3.5319176,4.882534,2.0131321,7.5131416s-4.8825336,3.5319185-7.5131412,2.013133
	S0.662606,6.8789015,2.1813917,4.2482939S7.0639253,0.7163755,9.6945333,2.2351611"/>
</svg>
