<svg id="a759e448-5874-4b5a-8be1-65f34766505a" data-name="Layer 3" xmlns="http://www.w3.org/2000/svg" viewBox="0 0 100 100"><defs><style>.b92e9f0b-e7b3-4472-aa0c-4a6423031bdf{fill:#111;}.bda94be3-f37a-4179-9064-f3bc11a8d733{fill:#8a59a4;}.a2eecc3a-7947-4e6e-93bb-cba5bbcb2263{fill:#623d79;}</style></defs><rect class="b92e9f0b-e7b3-4472-aa0c-4a6423031bdf" width="100" height="100" rx="5"/><path class="bda94be3-f37a-4179-9064-f3bc11a8d733" d="M30.875,85.7H50.09562a0,0,0,0,1,0,0v6.8a0,0,0,0,1,0,0H33.375a2.5,2.5,0,0,1-2.5-2.5V85.7A0,0,0,0,1,30.875,85.7Z"/><path class="bda94be3-f37a-4179-9064-f3bc11a8d733" d="M50.10338,7.5V45.75H17.79707a2.5,2.5,0,0,1-1.76538-4.27015Z" transform="translate(0 0)"/><path class="a2eecc3a-7947-4e6e-93bb-cba5bbcb2263" d="M52.40437,85.7H69.125a0,0,0,0,1,0,0v6.8a0,0,0,0,1,0,0H49.90437a0,0,0,0,1,0,0V88.2A2.5,2.5,0,0,1,52.40437,85.7Z" transform="translate(119.02937 178.2) rotate(-180)"/><path class="a2eecc3a-7947-4e6e-93bb-cba5bbcb2263" d="M49.89662,7.5V45.75H82.20293a2.5,2.5,0,0,0,1.76538-4.27015Z" transform="translate(0 0)"/><path class="bda94be3-f37a-4179-9064-f3bc11a8d733" d="M30.875,74.65H50.09562a0,0,0,0,1,0,0v6.8a0,0,0,0,1,0,0H33.375a2.5,2.5,0,0,1-2.5-2.5v-4.3A0,0,0,0,1,30.875,74.65Z"/><path class="a2eecc3a-7947-4e6e-93bb-cba5bbcb2263" d="M52.40437,74.65H69.125a0,0,0,0,1,0,0v6.8a0,0,0,0,1,0,0H49.90437a0,0,0,0,1,0,0v-4.3A2.5,2.5,0,0,1,52.40437,74.65Z" transform="translate(119.02937 156.1) rotate(-180)"/><path class="bda94be3-f37a-4179-9064-f3bc11a8d733" d="M30.77937,38.015H50a0,0,0,0,1,0,0V70.4a0,0,0,0,1,0,0H33.27937a2.5,2.5,0,0,1-2.5-2.5V38.015A0,0,0,0,1,30.77937,38.015Z"/><path class="a2eecc3a-7947-4e6e-93bb-cba5bbcb2263" d="M49.90437,38.015H69.125a0,0,0,0,1,0,0V67.9a2.5,2.5,0,0,1-2.5,2.5H49.90437a0,0,0,0,1,0,0V38.015A0,0,0,0,1,49.90437,38.015Z"/></svg>